# xmcd
#
# Track frame offsets:
#	200
#	18710
#	37502
#	56522
#	78030
#	100885
#	116675
#	136030
#
# Disc length: 2057 seconds
#
# Revision: 0
# Processed by: cddbd v1.5.2PL0 Copyright (c) Steve Scherf et al.
# Submitted via: EasyCDDAExtractor 16.0.1.1
#
DISCID=54080708
DTITLE=Ken Nordin - Countdown
DYEAR=1997
DGENRE=Country
TTITLE0=Countdown
TTITLE1=Stay In The Saddle
TTITLE2=Man In The Mirror
TTITLE3=Cowboy
TTITLE4=Chasin Rainbows
TTITLE5=Dollar (Five Bucks)
TTITLE6=She's Leavin'
TTITLE7=High Sierra
EXTD=
EXTT0=
EXTT1=
EXTT2=
EXTT3=
EXTT4=
EXTT5=
EXTT6=
EXTT7=
PLAYORDER=
